<mxfile host="app.diagrams.net" modified="2024-07-14T05:34:47.707Z" agent="Mozilla/5.0 (Windows NT 10.0; Win64; x64) AppleWebKit/537.36 (KHTML, like Gecko) Chrome/126.0.0.0 Safari/537.36 Edg/126.0.0.0" etag="sPo1-JWqTeqa1-xONyTu" version="24.6.4" type="github">
  <diagram name="第 1 页" id="xF_slF0fyWrFhzLifDI3">
    <mxGraphModel dx="1448" dy="575" grid="0" gridSize="10" guides="1" tooltips="1" connect="1" arrows="1" fold="1" page="1" pageScale="1" pageWidth="2336" pageHeight="1654" background="none" math="0" shadow="0">
      <root>
        <mxCell id="0" />
        <mxCell id="jeHXLBTCa4225aKpq0WZ-4" parent="0" />
        <mxCell id="jeHXLBTCa4225aKpq0WZ-6" value="&lt;font style=&quot;font-size: 14px;&quot; face=&quot;Comic Sans MS&quot;&gt;FTP客户&lt;/font&gt;" style="rounded=1;whiteSpace=wrap;html=1;fillColor=#fff2cc;strokeColor=#d6b656;" vertex="1" parent="jeHXLBTCa4225aKpq0WZ-4">
          <mxGeometry x="454" y="88" width="100" height="60" as="geometry" />
        </mxCell>
        <mxCell id="jeHXLBTCa4225aKpq0WZ-7" value="&lt;font face=&quot;Comic Sans MS&quot;&gt;&lt;span style=&quot;font-size: 14px;&quot;&gt;TCP&lt;/span&gt;&lt;/font&gt;" style="rounded=1;whiteSpace=wrap;html=1;fillColor=#fff2cc;strokeColor=#d6b656;" vertex="1" parent="jeHXLBTCa4225aKpq0WZ-4">
          <mxGeometry x="454" y="188" width="100" height="60" as="geometry" />
        </mxCell>
        <mxCell id="jeHXLBTCa4225aKpq0WZ-8" value="&lt;font face=&quot;Comic Sans MS&quot;&gt;&lt;span style=&quot;font-size: 14px;&quot;&gt;IP&lt;/span&gt;&lt;/font&gt;" style="rounded=1;whiteSpace=wrap;html=1;fillColor=#fff2cc;strokeColor=#d6b656;" vertex="1" parent="jeHXLBTCa4225aKpq0WZ-4">
          <mxGeometry x="454" y="288" width="100" height="60" as="geometry" />
        </mxCell>
        <mxCell id="jeHXLBTCa4225aKpq0WZ-9" value="&lt;font face=&quot;Comic Sans MS&quot;&gt;&lt;span style=&quot;font-size: 14px;&quot;&gt;以太网驱动程序&lt;/span&gt;&lt;/font&gt;" style="rounded=1;whiteSpace=wrap;html=1;fillColor=#fff2cc;strokeColor=#d6b656;" vertex="1" parent="jeHXLBTCa4225aKpq0WZ-4">
          <mxGeometry x="454" y="388" width="100" height="60" as="geometry" />
        </mxCell>
        <mxCell id="jeHXLBTCa4225aKpq0WZ-10" value="&lt;font style=&quot;font-size: 14px;&quot; face=&quot;Comic Sans MS&quot;&gt;FTP服务器&lt;/font&gt;" style="rounded=1;whiteSpace=wrap;html=1;fillColor=#dae8fc;strokeColor=#6c8ebf;" vertex="1" parent="jeHXLBTCa4225aKpq0WZ-4">
          <mxGeometry x="948" y="88" width="100" height="60" as="geometry" />
        </mxCell>
        <mxCell id="jeHXLBTCa4225aKpq0WZ-11" value="&lt;font face=&quot;Comic Sans MS&quot;&gt;&lt;span style=&quot;font-size: 14px;&quot;&gt;TCP&lt;/span&gt;&lt;/font&gt;" style="rounded=1;whiteSpace=wrap;html=1;fillColor=#dae8fc;strokeColor=#6c8ebf;" vertex="1" parent="jeHXLBTCa4225aKpq0WZ-4">
          <mxGeometry x="948" y="188" width="100" height="60" as="geometry" />
        </mxCell>
        <mxCell id="jeHXLBTCa4225aKpq0WZ-12" value="&lt;font face=&quot;Comic Sans MS&quot;&gt;&lt;span style=&quot;font-size: 14px;&quot;&gt;IP&lt;/span&gt;&lt;/font&gt;" style="rounded=1;whiteSpace=wrap;html=1;fillColor=#dae8fc;strokeColor=#6c8ebf;" vertex="1" parent="jeHXLBTCa4225aKpq0WZ-4">
          <mxGeometry x="948" y="288" width="100" height="60" as="geometry" />
        </mxCell>
        <mxCell id="jeHXLBTCa4225aKpq0WZ-13" value="&lt;font face=&quot;Comic Sans MS&quot;&gt;&lt;span style=&quot;font-size: 14px;&quot;&gt;以太网驱动程序&lt;/span&gt;&lt;/font&gt;" style="rounded=1;whiteSpace=wrap;html=1;fillColor=#dae8fc;strokeColor=#6c8ebf;" vertex="1" parent="jeHXLBTCa4225aKpq0WZ-4">
          <mxGeometry x="948" y="388" width="100" height="60" as="geometry" />
        </mxCell>
        <mxCell id="jeHXLBTCa4225aKpq0WZ-28" value="" style="shape=flexArrow;endArrow=classic;startArrow=classic;html=1;rounded=0;entryX=0;entryY=0.5;entryDx=0;entryDy=0;" edge="1" parent="jeHXLBTCa4225aKpq0WZ-4" target="jeHXLBTCa4225aKpq0WZ-10">
          <mxGeometry width="100" height="100" relative="1" as="geometry">
            <mxPoint x="554" y="116" as="sourcePoint" />
            <mxPoint x="752" y="120" as="targetPoint" />
          </mxGeometry>
        </mxCell>
        <mxCell id="jeHXLBTCa4225aKpq0WZ-29" value="&lt;font style=&quot;font-size: 12px;&quot;&gt;FTP协议&lt;/font&gt;" style="edgeLabel;html=1;align=center;verticalAlign=middle;resizable=0;points=[];fontFamily=Comic Sans MS;fontStyle=1" vertex="1" connectable="0" parent="jeHXLBTCa4225aKpq0WZ-28">
          <mxGeometry x="0.0099" y="2" relative="1" as="geometry">
            <mxPoint x="-2" y="-15" as="offset" />
          </mxGeometry>
        </mxCell>
        <mxCell id="jeHXLBTCa4225aKpq0WZ-31" value="" style="shape=flexArrow;endArrow=classic;startArrow=classic;html=1;rounded=0;entryX=0;entryY=0.5;entryDx=0;entryDy=0;exitX=1;exitY=0.5;exitDx=0;exitDy=0;" edge="1" parent="jeHXLBTCa4225aKpq0WZ-4" source="jeHXLBTCa4225aKpq0WZ-7" target="jeHXLBTCa4225aKpq0WZ-11">
          <mxGeometry width="100" height="100" relative="1" as="geometry">
            <mxPoint x="554" y="222" as="sourcePoint" />
            <mxPoint x="654" y="122" as="targetPoint" />
          </mxGeometry>
        </mxCell>
        <mxCell id="jeHXLBTCa4225aKpq0WZ-32" value="" style="shape=flexArrow;endArrow=classic;startArrow=classic;html=1;rounded=0;entryX=0;entryY=0.5;entryDx=0;entryDy=0;" edge="1" parent="jeHXLBTCa4225aKpq0WZ-4" target="jeHXLBTCa4225aKpq0WZ-12">
          <mxGeometry width="100" height="100" relative="1" as="geometry">
            <mxPoint x="554" y="320" as="sourcePoint" />
            <mxPoint x="874" y="320" as="targetPoint" />
          </mxGeometry>
        </mxCell>
        <mxCell id="jeHXLBTCa4225aKpq0WZ-33" value="" style="shape=flexArrow;endArrow=classic;startArrow=classic;html=1;rounded=0;exitX=1;exitY=0.5;exitDx=0;exitDy=0;entryX=0;entryY=0.5;entryDx=0;entryDy=0;" edge="1" parent="jeHXLBTCa4225aKpq0WZ-4" target="jeHXLBTCa4225aKpq0WZ-13">
          <mxGeometry width="100" height="100" relative="1" as="geometry">
            <mxPoint x="554" y="417.5" as="sourcePoint" />
            <mxPoint x="659" y="418" as="targetPoint" />
          </mxGeometry>
        </mxCell>
        <mxCell id="jeHXLBTCa4225aKpq0WZ-34" value="&lt;font style=&quot;font-size: 12px;&quot;&gt;TCP协议&lt;/font&gt;" style="edgeLabel;html=1;align=center;verticalAlign=middle;resizable=0;points=[];fontFamily=Comic Sans MS;fontStyle=1" vertex="1" connectable="0" parent="jeHXLBTCa4225aKpq0WZ-4">
          <mxGeometry x="761.9975883647296" y="139.000165036829" as="geometry">
            <mxPoint x="-9" y="63" as="offset" />
          </mxGeometry>
        </mxCell>
        <mxCell id="jeHXLBTCa4225aKpq0WZ-35" value="&lt;font style=&quot;font-size: 12px;&quot;&gt;IP协议&lt;/font&gt;" style="edgeLabel;html=1;align=center;verticalAlign=middle;resizable=0;points=[];fontFamily=Comic Sans MS;fontStyle=1" vertex="1" connectable="0" parent="jeHXLBTCa4225aKpq0WZ-4">
          <mxGeometry x="761.9975883647296" y="238.000165036829" as="geometry">
            <mxPoint x="-9" y="63" as="offset" />
          </mxGeometry>
        </mxCell>
        <mxCell id="jeHXLBTCa4225aKpq0WZ-36" value="&lt;font style=&quot;font-size: 12px;&quot;&gt;以太网协议&lt;/font&gt;" style="edgeLabel;html=1;align=center;verticalAlign=middle;resizable=0;points=[];fontFamily=Comic Sans MS;fontStyle=1" vertex="1" connectable="0" parent="jeHXLBTCa4225aKpq0WZ-4">
          <mxGeometry x="761.9975883647296" y="337.000165036829" as="geometry">
            <mxPoint x="-9" y="63" as="offset" />
          </mxGeometry>
        </mxCell>
        <mxCell id="jeHXLBTCa4225aKpq0WZ-40" value="" style="endArrow=none;html=1;rounded=0;" edge="1" parent="jeHXLBTCa4225aKpq0WZ-4">
          <mxGeometry width="50" height="50" relative="1" as="geometry">
            <mxPoint x="504" y="498" as="sourcePoint" />
            <mxPoint x="504" y="448" as="targetPoint" />
          </mxGeometry>
        </mxCell>
        <mxCell id="jeHXLBTCa4225aKpq0WZ-41" value="" style="endArrow=none;html=1;rounded=0;" edge="1" parent="jeHXLBTCa4225aKpq0WZ-4">
          <mxGeometry width="50" height="50" relative="1" as="geometry">
            <mxPoint x="997.5" y="498" as="sourcePoint" />
            <mxPoint x="997.5" y="448" as="targetPoint" />
          </mxGeometry>
        </mxCell>
        <mxCell id="jeHXLBTCa4225aKpq0WZ-42" value="" style="endArrow=none;html=1;rounded=0;" edge="1" parent="jeHXLBTCa4225aKpq0WZ-4">
          <mxGeometry width="50" height="50" relative="1" as="geometry">
            <mxPoint x="427" y="499" as="sourcePoint" />
            <mxPoint x="1093" y="499" as="targetPoint" />
          </mxGeometry>
        </mxCell>
        <mxCell id="jeHXLBTCa4225aKpq0WZ-43" value="以太网" style="text;strokeColor=none;align=center;fillColor=none;html=1;verticalAlign=middle;whiteSpace=wrap;rounded=0;fontSize=14;fontFamily=Comic Sans MS;" vertex="1" parent="jeHXLBTCa4225aKpq0WZ-4">
          <mxGeometry x="723" y="466" width="60" height="30" as="geometry" />
        </mxCell>
        <mxCell id="jeHXLBTCa4225aKpq0WZ-44" value="&lt;font face=&quot;Comic Sans MS&quot; style=&quot;font-size: 14px;&quot;&gt;应用层&lt;/font&gt;" style="text;strokeColor=none;align=center;fillColor=none;html=1;verticalAlign=middle;whiteSpace=wrap;rounded=0;fontStyle=1" vertex="1" parent="jeHXLBTCa4225aKpq0WZ-4">
          <mxGeometry x="371" y="103" width="60" height="30" as="geometry" />
        </mxCell>
        <mxCell id="jeHXLBTCa4225aKpq0WZ-45" value="&lt;font face=&quot;Comic Sans MS&quot; style=&quot;font-size: 14px;&quot;&gt;传输层&lt;/font&gt;" style="text;strokeColor=none;align=center;fillColor=none;html=1;verticalAlign=middle;whiteSpace=wrap;rounded=0;fontStyle=1" vertex="1" parent="jeHXLBTCa4225aKpq0WZ-4">
          <mxGeometry x="371" y="208" width="60" height="30" as="geometry" />
        </mxCell>
        <mxCell id="jeHXLBTCa4225aKpq0WZ-46" value="&lt;font face=&quot;Comic Sans MS&quot; style=&quot;font-size: 14px;&quot;&gt;网络层&lt;/font&gt;" style="text;strokeColor=none;align=center;fillColor=none;html=1;verticalAlign=middle;whiteSpace=wrap;rounded=0;fontStyle=1" vertex="1" parent="jeHXLBTCa4225aKpq0WZ-4">
          <mxGeometry x="371" y="307" width="60" height="30" as="geometry" />
        </mxCell>
        <mxCell id="jeHXLBTCa4225aKpq0WZ-47" value="&lt;font face=&quot;Comic Sans MS&quot; style=&quot;font-size: 14px;&quot;&gt;数据链路层&lt;/font&gt;" style="text;strokeColor=none;align=center;fillColor=none;html=1;verticalAlign=middle;whiteSpace=wrap;rounded=0;fontStyle=1" vertex="1" parent="jeHXLBTCa4225aKpq0WZ-4">
          <mxGeometry x="362" y="403" width="78" height="30" as="geometry" />
        </mxCell>
        <mxCell id="jeHXLBTCa4225aKpq0WZ-48" value="&lt;font face=&quot;Comic Sans MS&quot; style=&quot;font-size: 14px;&quot;&gt;FTP客户&lt;/font&gt;" style="rounded=1;whiteSpace=wrap;html=1;fillColor=#fff2cc;strokeColor=#d6b656;fontStyle=1" vertex="1" parent="jeHXLBTCa4225aKpq0WZ-4">
          <mxGeometry x="624" y="726" width="100" height="60" as="geometry" />
        </mxCell>
        <mxCell id="jeHXLBTCa4225aKpq0WZ-49" value="&lt;font face=&quot;Comic Sans MS&quot;&gt;&lt;span style=&quot;font-size: 14px;&quot;&gt;TCP&lt;/span&gt;&lt;/font&gt;" style="rounded=1;whiteSpace=wrap;html=1;fillColor=#fff2cc;strokeColor=#d6b656;fontStyle=1" vertex="1" parent="jeHXLBTCa4225aKpq0WZ-4">
          <mxGeometry x="624" y="826" width="100" height="60" as="geometry" />
        </mxCell>
        <mxCell id="jeHXLBTCa4225aKpq0WZ-50" value="&lt;font face=&quot;Comic Sans MS&quot;&gt;&lt;span style=&quot;font-size: 14px;&quot;&gt;IP&lt;/span&gt;&lt;/font&gt;" style="rounded=1;whiteSpace=wrap;html=1;fillColor=#fff2cc;strokeColor=#d6b656;fontStyle=1" vertex="1" parent="jeHXLBTCa4225aKpq0WZ-4">
          <mxGeometry x="624" y="926" width="100" height="60" as="geometry" />
        </mxCell>
        <mxCell id="jeHXLBTCa4225aKpq0WZ-51" value="&lt;font face=&quot;Comic Sans MS&quot;&gt;&lt;span style=&quot;font-size: 14px;&quot;&gt;以太网驱动程序&lt;/span&gt;&lt;/font&gt;" style="rounded=1;whiteSpace=wrap;html=1;fillColor=#fff2cc;strokeColor=#d6b656;fontStyle=1" vertex="1" parent="jeHXLBTCa4225aKpq0WZ-4">
          <mxGeometry x="624" y="1026" width="100" height="60" as="geometry" />
        </mxCell>
        <mxCell id="jeHXLBTCa4225aKpq0WZ-52" value="&lt;font face=&quot;Comic Sans MS&quot; style=&quot;font-size: 14px;&quot;&gt;FTP服务器&lt;/font&gt;" style="rounded=1;whiteSpace=wrap;html=1;fillColor=#dae8fc;strokeColor=#6c8ebf;fontStyle=1" vertex="1" parent="jeHXLBTCa4225aKpq0WZ-4">
          <mxGeometry x="1118" y="726" width="100" height="60" as="geometry" />
        </mxCell>
        <mxCell id="jeHXLBTCa4225aKpq0WZ-53" value="&lt;font face=&quot;Comic Sans MS&quot;&gt;&lt;span style=&quot;font-size: 14px;&quot;&gt;TCP&lt;/span&gt;&lt;/font&gt;" style="rounded=1;whiteSpace=wrap;html=1;fillColor=#dae8fc;strokeColor=#6c8ebf;fontStyle=1" vertex="1" parent="jeHXLBTCa4225aKpq0WZ-4">
          <mxGeometry x="1118" y="826" width="100" height="60" as="geometry" />
        </mxCell>
        <mxCell id="jeHXLBTCa4225aKpq0WZ-54" value="&lt;font face=&quot;Comic Sans MS&quot;&gt;&lt;span style=&quot;font-size: 14px;&quot;&gt;IP&lt;/span&gt;&lt;/font&gt;" style="rounded=1;whiteSpace=wrap;html=1;fillColor=#dae8fc;strokeColor=#6c8ebf;fontStyle=1" vertex="1" parent="jeHXLBTCa4225aKpq0WZ-4">
          <mxGeometry x="1120" y="926" width="100" height="60" as="geometry" />
        </mxCell>
        <mxCell id="jeHXLBTCa4225aKpq0WZ-55" value="&lt;font face=&quot;Comic Sans MS&quot;&gt;&lt;span style=&quot;font-size: 14px;&quot;&gt;令牌环驱动程序&lt;/span&gt;&lt;/font&gt;" style="rounded=1;whiteSpace=wrap;html=1;fillColor=#dae8fc;strokeColor=#6c8ebf;fontStyle=1" vertex="1" parent="jeHXLBTCa4225aKpq0WZ-4">
          <mxGeometry x="1118" y="1026" width="100" height="60" as="geometry" />
        </mxCell>
        <mxCell id="jeHXLBTCa4225aKpq0WZ-56" value="" style="shape=flexArrow;endArrow=classic;startArrow=classic;html=1;rounded=0;entryX=0;entryY=0.5;entryDx=0;entryDy=0;fontStyle=1;dashed=1;" edge="1" parent="jeHXLBTCa4225aKpq0WZ-4" target="jeHXLBTCa4225aKpq0WZ-52">
          <mxGeometry width="100" height="100" relative="1" as="geometry">
            <mxPoint x="724" y="754" as="sourcePoint" />
            <mxPoint x="922" y="758" as="targetPoint" />
          </mxGeometry>
        </mxCell>
        <mxCell id="jeHXLBTCa4225aKpq0WZ-57" value="&lt;font style=&quot;font-size: 12px;&quot;&gt;FTP协议&lt;/font&gt;" style="edgeLabel;html=1;align=center;verticalAlign=middle;resizable=0;points=[];fontFamily=Comic Sans MS;fontStyle=1" vertex="1" connectable="0" parent="jeHXLBTCa4225aKpq0WZ-56">
          <mxGeometry x="0.0099" y="2" relative="1" as="geometry">
            <mxPoint x="-2" y="-15" as="offset" />
          </mxGeometry>
        </mxCell>
        <mxCell id="jeHXLBTCa4225aKpq0WZ-58" value="" style="shape=flexArrow;endArrow=classic;startArrow=classic;html=1;rounded=0;entryX=0;entryY=0.5;entryDx=0;entryDy=0;exitX=1;exitY=0.5;exitDx=0;exitDy=0;fontStyle=1;dashed=1;" edge="1" parent="jeHXLBTCa4225aKpq0WZ-4" source="jeHXLBTCa4225aKpq0WZ-49" target="jeHXLBTCa4225aKpq0WZ-53">
          <mxGeometry width="100" height="100" relative="1" as="geometry">
            <mxPoint x="724" y="860" as="sourcePoint" />
            <mxPoint x="824" y="760" as="targetPoint" />
          </mxGeometry>
        </mxCell>
        <mxCell id="jeHXLBTCa4225aKpq0WZ-59" value="" style="shape=flexArrow;endArrow=classic;startArrow=block;html=1;rounded=0;fontStyle=1;fontColor=#6600CC;startFill=0;strokeColor=default;flowAnimation=0;dashed=1;entryX=0;entryY=0.5;entryDx=0;entryDy=0;" edge="1" parent="jeHXLBTCa4225aKpq0WZ-4" target="jeHXLBTCa4225aKpq0WZ-75">
          <mxGeometry width="100" height="100" relative="1" as="geometry">
            <mxPoint x="724" y="958" as="sourcePoint" />
            <mxPoint x="868" y="958" as="targetPoint" />
          </mxGeometry>
        </mxCell>
        <mxCell id="jeHXLBTCa4225aKpq0WZ-60" value="" style="shape=flexArrow;endArrow=classic;startArrow=classic;html=1;rounded=0;exitX=1;exitY=0.5;exitDx=0;exitDy=0;fontStyle=1;dashed=1;entryX=0;entryY=0.5;entryDx=0;entryDy=0;" edge="1" parent="jeHXLBTCa4225aKpq0WZ-4" target="jeHXLBTCa4225aKpq0WZ-77">
          <mxGeometry width="100" height="100" relative="1" as="geometry">
            <mxPoint x="724" y="1055.5" as="sourcePoint" />
            <mxPoint x="799" y="1056" as="targetPoint" />
          </mxGeometry>
        </mxCell>
        <mxCell id="jeHXLBTCa4225aKpq0WZ-61" value="&lt;font style=&quot;font-size: 12px;&quot;&gt;TCP协议&lt;/font&gt;" style="edgeLabel;html=1;align=center;verticalAlign=middle;resizable=0;points=[];fontFamily=Comic Sans MS;fontStyle=1" vertex="1" connectable="0" parent="jeHXLBTCa4225aKpq0WZ-4">
          <mxGeometry x="931.9975883647296" y="777.000165036829" as="geometry">
            <mxPoint x="-9" y="63" as="offset" />
          </mxGeometry>
        </mxCell>
        <mxCell id="jeHXLBTCa4225aKpq0WZ-62" value="&lt;font style=&quot;font-size: 12px;&quot;&gt;IP协议&lt;/font&gt;" style="edgeLabel;html=1;align=center;verticalAlign=middle;resizable=0;points=[];fontFamily=Comic Sans MS;fontStyle=1" vertex="1" connectable="0" parent="jeHXLBTCa4225aKpq0WZ-4">
          <mxGeometry x="784.9975883647296" y="876.000165036829" as="geometry">
            <mxPoint x="-9" y="63" as="offset" />
          </mxGeometry>
        </mxCell>
        <mxCell id="jeHXLBTCa4225aKpq0WZ-63" value="&lt;font style=&quot;font-size: 12px;&quot;&gt;以太网协议&lt;/font&gt;" style="edgeLabel;html=1;align=center;verticalAlign=middle;resizable=0;points=[];fontFamily=Comic Sans MS;fontStyle=1" vertex="1" connectable="0" parent="jeHXLBTCa4225aKpq0WZ-4">
          <mxGeometry x="780.9975883647296" y="969.000165036829" as="geometry">
            <mxPoint x="-9" y="63" as="offset" />
          </mxGeometry>
        </mxCell>
        <mxCell id="jeHXLBTCa4225aKpq0WZ-64" value="" style="endArrow=none;html=1;rounded=0;fontStyle=1;strokeColor=default;strokeWidth=2;align=center;verticalAlign=middle;fontFamily=Helvetica;fontSize=11;fontColor=default;labelBackgroundColor=default;" edge="1" parent="jeHXLBTCa4225aKpq0WZ-4">
          <mxGeometry width="50" height="50" relative="1" as="geometry">
            <mxPoint x="674" y="1136" as="sourcePoint" />
            <mxPoint x="674" y="1086" as="targetPoint" />
          </mxGeometry>
        </mxCell>
        <mxCell id="jeHXLBTCa4225aKpq0WZ-65" value="" style="endArrow=none;html=1;rounded=0;fontStyle=1;strokeColor=default;strokeWidth=2;align=center;verticalAlign=middle;fontFamily=Helvetica;fontSize=11;fontColor=default;labelBackgroundColor=default;" edge="1" parent="jeHXLBTCa4225aKpq0WZ-4">
          <mxGeometry width="50" height="50" relative="1" as="geometry">
            <mxPoint x="856" y="1137" as="sourcePoint" />
            <mxPoint x="855.5" y="1081" as="targetPoint" />
          </mxGeometry>
        </mxCell>
        <mxCell id="jeHXLBTCa4225aKpq0WZ-66" value="" style="endArrow=none;html=1;rounded=0;fontStyle=1;strokeWidth=2;" edge="1" parent="jeHXLBTCa4225aKpq0WZ-4">
          <mxGeometry width="50" height="50" relative="1" as="geometry">
            <mxPoint x="612" y="1137" as="sourcePoint" />
            <mxPoint x="903" y="1137" as="targetPoint" />
          </mxGeometry>
        </mxCell>
        <mxCell id="jeHXLBTCa4225aKpq0WZ-67" value="以太网" style="text;strokeColor=none;align=center;fillColor=none;html=1;verticalAlign=middle;whiteSpace=wrap;rounded=0;fontSize=14;fontFamily=Comic Sans MS;fontStyle=1" vertex="1" parent="jeHXLBTCa4225aKpq0WZ-4">
          <mxGeometry x="725" y="1101" width="60" height="30" as="geometry" />
        </mxCell>
        <mxCell id="jeHXLBTCa4225aKpq0WZ-68" value="&lt;font style=&quot;font-size: 14px;&quot; face=&quot;Comic Sans MS&quot;&gt;应用层&lt;/font&gt;" style="text;strokeColor=none;align=center;fillColor=none;html=1;verticalAlign=middle;whiteSpace=wrap;rounded=0;fontStyle=1" vertex="1" parent="jeHXLBTCa4225aKpq0WZ-4">
          <mxGeometry x="541" y="741" width="60" height="30" as="geometry" />
        </mxCell>
        <mxCell id="jeHXLBTCa4225aKpq0WZ-69" value="&lt;font style=&quot;font-size: 14px;&quot; face=&quot;Comic Sans MS&quot;&gt;传输层&lt;/font&gt;" style="text;strokeColor=none;align=center;fillColor=none;html=1;verticalAlign=middle;whiteSpace=wrap;rounded=0;fontStyle=1" vertex="1" parent="jeHXLBTCa4225aKpq0WZ-4">
          <mxGeometry x="541" y="846" width="60" height="30" as="geometry" />
        </mxCell>
        <mxCell id="jeHXLBTCa4225aKpq0WZ-70" value="&lt;font style=&quot;font-size: 14px;&quot; face=&quot;Comic Sans MS&quot;&gt;网络层&lt;/font&gt;" style="text;strokeColor=none;align=center;fillColor=none;html=1;verticalAlign=middle;whiteSpace=wrap;rounded=0;fontStyle=1" vertex="1" parent="jeHXLBTCa4225aKpq0WZ-4">
          <mxGeometry x="541" y="945" width="60" height="30" as="geometry" />
        </mxCell>
        <mxCell id="jeHXLBTCa4225aKpq0WZ-71" value="&lt;font style=&quot;font-size: 14px;&quot; face=&quot;Comic Sans MS&quot;&gt;数据链路层&lt;/font&gt;" style="text;strokeColor=none;align=center;fillColor=none;html=1;verticalAlign=middle;whiteSpace=wrap;rounded=0;fontStyle=1" vertex="1" parent="jeHXLBTCa4225aKpq0WZ-4">
          <mxGeometry x="532" y="1041" width="78" height="30" as="geometry" />
        </mxCell>
        <mxCell id="jeHXLBTCa4225aKpq0WZ-73" value="" style="shape=flexArrow;endArrow=classic;startArrow=block;html=1;rounded=0;fontStyle=1;fontColor=#6600CC;startFill=0;strokeColor=default;flowAnimation=0;dashed=1;" edge="1" parent="jeHXLBTCa4225aKpq0WZ-4">
          <mxGeometry width="100" height="100" relative="1" as="geometry">
            <mxPoint x="973" y="955.5" as="sourcePoint" />
            <mxPoint x="1122" y="955.5" as="targetPoint" />
          </mxGeometry>
        </mxCell>
        <mxCell id="jeHXLBTCa4225aKpq0WZ-74" value="&lt;font style=&quot;font-size: 12px;&quot;&gt;IP协议&lt;/font&gt;" style="edgeLabel;html=1;align=center;verticalAlign=middle;resizable=0;points=[];fontFamily=Comic Sans MS;fontStyle=1" vertex="1" connectable="0" parent="jeHXLBTCa4225aKpq0WZ-4">
          <mxGeometry x="1059.9975883647296" y="876.000165036829" as="geometry">
            <mxPoint x="-9" y="63" as="offset" />
          </mxGeometry>
        </mxCell>
        <mxCell id="jeHXLBTCa4225aKpq0WZ-75" value="&lt;font face=&quot;Comic Sans MS&quot;&gt;&lt;span style=&quot;font-size: 14px;&quot;&gt;IP&lt;/span&gt;&lt;/font&gt;" style="rounded=1;whiteSpace=wrap;html=1;fillColor=#fff2cc;strokeColor=#d6b656;fontStyle=1" vertex="1" parent="jeHXLBTCa4225aKpq0WZ-4">
          <mxGeometry x="873" y="926" width="100" height="60" as="geometry" />
        </mxCell>
        <mxCell id="jeHXLBTCa4225aKpq0WZ-77" value="&lt;font face=&quot;Comic Sans MS&quot;&gt;&lt;span style=&quot;font-size: 14px;&quot;&gt;以太网驱动程序&lt;/span&gt;&lt;/font&gt;" style="rounded=1;whiteSpace=wrap;html=1;fillColor=#fff2cc;strokeColor=#d6b656;fontStyle=1" vertex="1" parent="jeHXLBTCa4225aKpq0WZ-4">
          <mxGeometry x="819" y="1026" width="74" height="60" as="geometry" />
        </mxCell>
        <mxCell id="jeHXLBTCa4225aKpq0WZ-78" value="&lt;font face=&quot;Comic Sans MS&quot;&gt;&lt;span style=&quot;font-size: 14px;&quot;&gt;令牌环驱动程序&lt;/span&gt;&lt;/font&gt;" style="rounded=1;whiteSpace=wrap;html=1;fillColor=#dae8fc;strokeColor=#6c8ebf;fontStyle=1" vertex="1" parent="jeHXLBTCa4225aKpq0WZ-4">
          <mxGeometry x="939" y="1026" width="75" height="60" as="geometry" />
        </mxCell>
        <mxCell id="jeHXLBTCa4225aKpq0WZ-79" value="" style="shape=flexArrow;endArrow=classic;startArrow=classic;html=1;rounded=0;fontStyle=1;dashed=1;exitX=1;exitY=0.5;exitDx=0;exitDy=0;" edge="1" parent="jeHXLBTCa4225aKpq0WZ-4" source="jeHXLBTCa4225aKpq0WZ-78">
          <mxGeometry width="100" height="100" relative="1" as="geometry">
            <mxPoint x="1040" y="1058" as="sourcePoint" />
            <mxPoint x="1116" y="1056" as="targetPoint" />
          </mxGeometry>
        </mxCell>
        <mxCell id="jeHXLBTCa4225aKpq0WZ-80" style="edgeStyle=none;shape=connector;rounded=0;orthogonalLoop=1;jettySize=auto;html=1;exitX=0.75;exitY=1;exitDx=0;exitDy=0;strokeColor=default;strokeWidth=2;align=center;verticalAlign=middle;fontFamily=Helvetica;fontSize=11;fontColor=default;fontStyle=1;labelBackgroundColor=default;endArrow=none;" edge="1" parent="jeHXLBTCa4225aKpq0WZ-4" source="jeHXLBTCa4225aKpq0WZ-78" target="jeHXLBTCa4225aKpq0WZ-78">
          <mxGeometry relative="1" as="geometry" />
        </mxCell>
        <mxCell id="jeHXLBTCa4225aKpq0WZ-81" value="&lt;font style=&quot;font-size: 12px;&quot;&gt;令牌环协议&lt;/font&gt;" style="edgeLabel;html=1;align=center;verticalAlign=middle;resizable=0;points=[];fontFamily=Comic Sans MS;fontStyle=1" vertex="1" connectable="0" parent="jeHXLBTCa4225aKpq0WZ-4">
          <mxGeometry x="1075.9975883647296" y="969.000165036829" as="geometry">
            <mxPoint x="-9" y="63" as="offset" />
          </mxGeometry>
        </mxCell>
        <mxCell id="jeHXLBTCa4225aKpq0WZ-82" value="" style="endArrow=classic;startArrow=classic;html=1;rounded=0;strokeColor=default;strokeWidth=2;align=center;verticalAlign=middle;fontFamily=Helvetica;fontSize=11;fontColor=default;fontStyle=1;labelBackgroundColor=default;exitX=0.5;exitY=0;exitDx=0;exitDy=0;" edge="1" parent="jeHXLBTCa4225aKpq0WZ-4" source="jeHXLBTCa4225aKpq0WZ-77" target="jeHXLBTCa4225aKpq0WZ-75">
          <mxGeometry width="50" height="50" relative="1" as="geometry">
            <mxPoint x="831" y="1026" as="sourcePoint" />
            <mxPoint x="871" y="989" as="targetPoint" />
          </mxGeometry>
        </mxCell>
        <mxCell id="jeHXLBTCa4225aKpq0WZ-85" value="" style="endArrow=classic;startArrow=classic;html=1;rounded=0;strokeColor=default;strokeWidth=2;align=center;verticalAlign=middle;fontFamily=Helvetica;fontSize=11;fontColor=default;fontStyle=1;labelBackgroundColor=default;" edge="1" parent="jeHXLBTCa4225aKpq0WZ-4">
          <mxGeometry width="50" height="50" relative="1" as="geometry">
            <mxPoint x="987" y="1026" as="sourcePoint" />
            <mxPoint x="958" y="986" as="targetPoint" />
          </mxGeometry>
        </mxCell>
        <mxCell id="jeHXLBTCa4225aKpq0WZ-86" value="" style="swimlane;startSize=0;fontFamily=Helvetica;fontSize=11;fontColor=default;fontStyle=1;labelBackgroundColor=default;dashed=1;movable=1;resizable=1;rotatable=1;deletable=1;editable=1;locked=0;connectable=1;" vertex="1" parent="jeHXLBTCa4225aKpq0WZ-4">
          <mxGeometry x="808" y="917" width="219" height="184" as="geometry">
            <mxRectangle x="665" y="842" width="50" height="44" as="alternateBounds" />
          </mxGeometry>
        </mxCell>
        <mxCell id="jeHXLBTCa4225aKpq0WZ-87" value="路由器" style="text;strokeColor=none;align=center;fillColor=none;html=1;verticalAlign=middle;whiteSpace=wrap;rounded=0;fontFamily=Helvetica;fontSize=11;fontColor=default;fontStyle=1;labelBackgroundColor=default;" vertex="1" parent="jeHXLBTCa4225aKpq0WZ-4">
          <mxGeometry x="890.5" y="887" width="60" height="30" as="geometry" />
        </mxCell>
        <mxCell id="jeHXLBTCa4225aKpq0WZ-90" value="" style="endArrow=none;html=1;rounded=0;fontStyle=1;strokeWidth=2;" edge="1" parent="jeHXLBTCa4225aKpq0WZ-4">
          <mxGeometry width="50" height="50" relative="1" as="geometry">
            <mxPoint x="942" y="1139" as="sourcePoint" />
            <mxPoint x="1239" y="1139" as="targetPoint" />
          </mxGeometry>
        </mxCell>
        <mxCell id="jeHXLBTCa4225aKpq0WZ-91" value="令牌环" style="text;strokeColor=none;align=center;fillColor=none;html=1;verticalAlign=middle;whiteSpace=wrap;rounded=0;fontSize=14;fontFamily=Comic Sans MS;fontStyle=1" vertex="1" parent="jeHXLBTCa4225aKpq0WZ-4">
          <mxGeometry x="1058" y="1101" width="60" height="30" as="geometry" />
        </mxCell>
        <mxCell id="jeHXLBTCa4225aKpq0WZ-92" value="" style="endArrow=none;html=1;rounded=0;fontStyle=1;strokeColor=default;strokeWidth=2;align=center;verticalAlign=middle;fontFamily=Helvetica;fontSize=11;fontColor=default;labelBackgroundColor=default;" edge="1" parent="jeHXLBTCa4225aKpq0WZ-4">
          <mxGeometry width="50" height="50" relative="1" as="geometry">
            <mxPoint x="986.5" y="1137" as="sourcePoint" />
            <mxPoint x="986" y="1086" as="targetPoint" />
          </mxGeometry>
        </mxCell>
        <mxCell id="jeHXLBTCa4225aKpq0WZ-93" value="" style="endArrow=none;html=1;rounded=0;fontStyle=1;strokeColor=default;strokeWidth=2;align=center;verticalAlign=middle;fontFamily=Helvetica;fontSize=11;fontColor=default;labelBackgroundColor=default;" edge="1" parent="jeHXLBTCa4225aKpq0WZ-4">
          <mxGeometry width="50" height="50" relative="1" as="geometry">
            <mxPoint x="1168.5" y="1137" as="sourcePoint" />
            <mxPoint x="1168" y="1086" as="targetPoint" />
          </mxGeometry>
        </mxCell>
        <mxCell id="jeHXLBTCa4225aKpq0WZ-101" value="&lt;font face=&quot;Comic Sans MS&quot; style=&quot;font-size: 14px;&quot;&gt;用户数据&lt;/font&gt;" style="rounded=1;whiteSpace=wrap;html=1;fillColor=#b0e3e6;strokeColor=#0e8088;fontStyle=1" vertex="1" parent="jeHXLBTCa4225aKpq0WZ-4">
          <mxGeometry x="427" y="726" width="100" height="60" as="geometry" />
        </mxCell>
        <mxCell id="jeHXLBTCa4225aKpq0WZ-102" value="&lt;font face=&quot;Comic Sans MS&quot; style=&quot;font-size: 14px;&quot;&gt;用户数据&lt;/font&gt;" style="rounded=1;whiteSpace=wrap;html=1;fillColor=#b0e3e6;strokeColor=#0e8088;fontStyle=1" vertex="1" parent="jeHXLBTCa4225aKpq0WZ-4">
          <mxGeometry x="427" y="827" width="100" height="60" as="geometry" />
        </mxCell>
        <mxCell id="jeHXLBTCa4225aKpq0WZ-103" value="&lt;font face=&quot;Comic Sans MS&quot; style=&quot;font-size: 14px;&quot;&gt;TCP首部&lt;/font&gt;" style="rounded=1;whiteSpace=wrap;html=1;fillColor=#fff2cc;strokeColor=#d6b656;fontStyle=1;gradientColor=#ffd966;" vertex="1" parent="jeHXLBTCa4225aKpq0WZ-4">
          <mxGeometry x="327" y="827" width="100" height="60" as="geometry" />
        </mxCell>
        <mxCell id="jeHXLBTCa4225aKpq0WZ-104" value="&lt;font face=&quot;Comic Sans MS&quot; style=&quot;font-size: 14px;&quot;&gt;用户数据&lt;/font&gt;" style="rounded=1;whiteSpace=wrap;html=1;fillColor=#b0e3e6;strokeColor=#0e8088;fontStyle=1" vertex="1" parent="jeHXLBTCa4225aKpq0WZ-4">
          <mxGeometry x="427" y="926" width="100" height="60" as="geometry" />
        </mxCell>
        <mxCell id="jeHXLBTCa4225aKpq0WZ-105" value="&lt;font face=&quot;Comic Sans MS&quot; style=&quot;font-size: 14px;&quot;&gt;TCP首部&lt;/font&gt;" style="rounded=1;whiteSpace=wrap;html=1;fillColor=#fff2cc;strokeColor=#d6b656;fontStyle=1;gradientColor=#ffd966;" vertex="1" parent="jeHXLBTCa4225aKpq0WZ-4">
          <mxGeometry x="327" y="926" width="100" height="60" as="geometry" />
        </mxCell>
        <mxCell id="jeHXLBTCa4225aKpq0WZ-106" value="&lt;font face=&quot;Comic Sans MS&quot; style=&quot;font-size: 14px;&quot;&gt;IP首部&lt;/font&gt;" style="rounded=1;whiteSpace=wrap;html=1;fillColor=#dae8fc;strokeColor=#6c8ebf;fontStyle=1;gradientColor=#7ea6e0;" vertex="1" parent="jeHXLBTCa4225aKpq0WZ-4">
          <mxGeometry x="227" y="926" width="100" height="60" as="geometry" />
        </mxCell>
        <mxCell id="jeHXLBTCa4225aKpq0WZ-107" value="&lt;font face=&quot;Comic Sans MS&quot; style=&quot;font-size: 14px;&quot;&gt;用户数据&lt;/font&gt;" style="rounded=1;whiteSpace=wrap;html=1;fillColor=#b0e3e6;strokeColor=#0e8088;fontStyle=1" vertex="1" parent="jeHXLBTCa4225aKpq0WZ-4">
          <mxGeometry x="427" y="1026" width="100" height="60" as="geometry" />
        </mxCell>
        <mxCell id="jeHXLBTCa4225aKpq0WZ-108" value="&lt;font face=&quot;Comic Sans MS&quot; style=&quot;font-size: 14px;&quot;&gt;TCP首部&lt;/font&gt;" style="rounded=1;whiteSpace=wrap;html=1;fillColor=#fff2cc;strokeColor=#d6b656;fontStyle=1;gradientColor=#ffd966;" vertex="1" parent="jeHXLBTCa4225aKpq0WZ-4">
          <mxGeometry x="327" y="1026" width="100" height="60" as="geometry" />
        </mxCell>
        <mxCell id="jeHXLBTCa4225aKpq0WZ-109" value="&lt;font face=&quot;Comic Sans MS&quot; style=&quot;font-size: 14px;&quot;&gt;IP首部&lt;/font&gt;" style="rounded=1;whiteSpace=wrap;html=1;fillColor=#dae8fc;strokeColor=#6c8ebf;fontStyle=1;gradientColor=#7ea6e0;" vertex="1" parent="jeHXLBTCa4225aKpq0WZ-4">
          <mxGeometry x="227" y="1026" width="100" height="60" as="geometry" />
        </mxCell>
        <mxCell id="jeHXLBTCa4225aKpq0WZ-110" value="&lt;font face=&quot;Comic Sans MS&quot; style=&quot;font-size: 14px;&quot;&gt;以太网首部&lt;/font&gt;" style="rounded=1;whiteSpace=wrap;html=1;fillColor=#f8cecc;strokeColor=#b85450;fontStyle=1;gradientColor=#ea6b66;" vertex="1" parent="jeHXLBTCa4225aKpq0WZ-4">
          <mxGeometry x="171" y="1026" width="56" height="60" as="geometry" />
        </mxCell>
        <mxCell id="jeHXLBTCa4225aKpq0WZ-114" value="" style="endArrow=classic;startArrow=classic;html=1;rounded=0;" edge="1" parent="jeHXLBTCa4225aKpq0WZ-4">
          <mxGeometry width="50" height="50" relative="1" as="geometry">
            <mxPoint x="503.5" y="188" as="sourcePoint" />
            <mxPoint x="504" y="149" as="targetPoint" />
          </mxGeometry>
        </mxCell>
        <mxCell id="jeHXLBTCa4225aKpq0WZ-115" value="" style="endArrow=classic;startArrow=classic;html=1;rounded=0;" edge="1" parent="jeHXLBTCa4225aKpq0WZ-4">
          <mxGeometry width="50" height="50" relative="1" as="geometry">
            <mxPoint x="997.5" y="187" as="sourcePoint" />
            <mxPoint x="998" y="148" as="targetPoint" />
          </mxGeometry>
        </mxCell>
        <mxCell id="jeHXLBTCa4225aKpq0WZ-116" value="" style="endArrow=classic;startArrow=classic;html=1;rounded=0;" edge="1" parent="jeHXLBTCa4225aKpq0WZ-4">
          <mxGeometry width="50" height="50" relative="1" as="geometry">
            <mxPoint x="503.5" y="287" as="sourcePoint" />
            <mxPoint x="504" y="248" as="targetPoint" />
          </mxGeometry>
        </mxCell>
        <mxCell id="jeHXLBTCa4225aKpq0WZ-117" value="" style="endArrow=classic;startArrow=classic;html=1;rounded=0;" edge="1" parent="jeHXLBTCa4225aKpq0WZ-4">
          <mxGeometry width="50" height="50" relative="1" as="geometry">
            <mxPoint x="503.5" y="388" as="sourcePoint" />
            <mxPoint x="504" y="349" as="targetPoint" />
          </mxGeometry>
        </mxCell>
        <mxCell id="jeHXLBTCa4225aKpq0WZ-118" value="" style="endArrow=classic;startArrow=classic;html=1;rounded=0;" edge="1" parent="jeHXLBTCa4225aKpq0WZ-4">
          <mxGeometry width="50" height="50" relative="1" as="geometry">
            <mxPoint x="997.5" y="287" as="sourcePoint" />
            <mxPoint x="998" y="248" as="targetPoint" />
          </mxGeometry>
        </mxCell>
        <mxCell id="jeHXLBTCa4225aKpq0WZ-119" value="" style="endArrow=classic;startArrow=classic;html=1;rounded=0;" edge="1" parent="jeHXLBTCa4225aKpq0WZ-4">
          <mxGeometry width="50" height="50" relative="1" as="geometry">
            <mxPoint x="997.5" y="384" as="sourcePoint" />
            <mxPoint x="998" y="345" as="targetPoint" />
          </mxGeometry>
        </mxCell>
        <mxCell id="jeHXLBTCa4225aKpq0WZ-121" value="" style="endArrow=classic;startArrow=classic;html=1;rounded=0;" edge="1" parent="jeHXLBTCa4225aKpq0WZ-4">
          <mxGeometry width="50" height="50" relative="1" as="geometry">
            <mxPoint x="673.5" y="825" as="sourcePoint" />
            <mxPoint x="674" y="786" as="targetPoint" />
          </mxGeometry>
        </mxCell>
        <mxCell id="jeHXLBTCa4225aKpq0WZ-122" value="" style="endArrow=classic;startArrow=classic;html=1;rounded=0;" edge="1" parent="jeHXLBTCa4225aKpq0WZ-4">
          <mxGeometry width="50" height="50" relative="1" as="geometry">
            <mxPoint x="673.5" y="925" as="sourcePoint" />
            <mxPoint x="674" y="886" as="targetPoint" />
          </mxGeometry>
        </mxCell>
        <mxCell id="jeHXLBTCa4225aKpq0WZ-123" value="" style="endArrow=classic;startArrow=classic;html=1;rounded=0;" edge="1" parent="jeHXLBTCa4225aKpq0WZ-4">
          <mxGeometry width="50" height="50" relative="1" as="geometry">
            <mxPoint x="673.5" y="1026" as="sourcePoint" />
            <mxPoint x="674" y="987" as="targetPoint" />
          </mxGeometry>
        </mxCell>
        <mxCell id="jeHXLBTCa4225aKpq0WZ-124" value="" style="endArrow=classic;startArrow=classic;html=1;rounded=0;" edge="1" parent="jeHXLBTCa4225aKpq0WZ-4">
          <mxGeometry width="50" height="50" relative="1" as="geometry">
            <mxPoint x="1169.5" y="826" as="sourcePoint" />
            <mxPoint x="1170" y="787" as="targetPoint" />
          </mxGeometry>
        </mxCell>
        <mxCell id="jeHXLBTCa4225aKpq0WZ-125" value="" style="endArrow=classic;startArrow=classic;html=1;rounded=0;" edge="1" parent="jeHXLBTCa4225aKpq0WZ-4">
          <mxGeometry width="50" height="50" relative="1" as="geometry">
            <mxPoint x="1168" y="925" as="sourcePoint" />
            <mxPoint x="1168.5" y="886" as="targetPoint" />
          </mxGeometry>
        </mxCell>
        <mxCell id="jeHXLBTCa4225aKpq0WZ-126" value="" style="endArrow=classic;startArrow=classic;html=1;rounded=0;" edge="1" parent="jeHXLBTCa4225aKpq0WZ-4">
          <mxGeometry width="50" height="50" relative="1" as="geometry">
            <mxPoint x="1167" y="1025" as="sourcePoint" />
            <mxPoint x="1167.5" y="986" as="targetPoint" />
          </mxGeometry>
        </mxCell>
        <mxCell id="jeHXLBTCa4225aKpq0WZ-127" value="&lt;font style=&quot;font-size: 14px;&quot; face=&quot;Comic Sans MS&quot;&gt;TCP数据段&lt;/font&gt;" style="text;strokeColor=none;align=center;fillColor=none;html=1;verticalAlign=middle;whiteSpace=wrap;rounded=0;fontStyle=1" vertex="1" parent="jeHXLBTCa4225aKpq0WZ-4">
          <mxGeometry x="394" y="886" width="75" height="30" as="geometry" />
        </mxCell>
        <mxCell id="jeHXLBTCa4225aKpq0WZ-128" value="&lt;font style=&quot;font-size: 14px;&quot; face=&quot;Comic Sans MS&quot;&gt;IP数据报&lt;/font&gt;" style="text;strokeColor=none;align=center;fillColor=none;html=1;verticalAlign=middle;whiteSpace=wrap;rounded=0;fontStyle=1" vertex="1" parent="jeHXLBTCa4225aKpq0WZ-4">
          <mxGeometry x="339.5" y="990" width="75" height="30" as="geometry" />
        </mxCell>
        <mxCell id="jeHXLBTCa4225aKpq0WZ-129" value="&lt;font style=&quot;font-size: 14px;&quot; face=&quot;Comic Sans MS&quot;&gt;以太网数据帧&lt;/font&gt;" style="text;strokeColor=none;align=center;fillColor=none;html=1;verticalAlign=middle;whiteSpace=wrap;rounded=0;fontStyle=1" vertex="1" parent="jeHXLBTCa4225aKpq0WZ-4">
          <mxGeometry x="305" y="1093" width="89" height="30" as="geometry" />
        </mxCell>
        <mxCell id="jeHXLBTCa4225aKpq0WZ-130" value="&lt;font face=&quot;Comic Sans MS&quot; style=&quot;font-size: 14px;&quot;&gt;用户数据&lt;/font&gt;" style="rounded=1;whiteSpace=wrap;html=1;fillColor=#b0e3e6;strokeColor=#0e8088;fontStyle=1" vertex="1" parent="jeHXLBTCa4225aKpq0WZ-4">
          <mxGeometry x="1507" y="726" width="100" height="60" as="geometry" />
        </mxCell>
        <mxCell id="jeHXLBTCa4225aKpq0WZ-131" value="&lt;font face=&quot;Comic Sans MS&quot; style=&quot;font-size: 14px;&quot;&gt;用户数据&lt;/font&gt;" style="rounded=1;whiteSpace=wrap;html=1;fillColor=#b0e3e6;strokeColor=#0e8088;fontStyle=1" vertex="1" parent="jeHXLBTCa4225aKpq0WZ-4">
          <mxGeometry x="1507" y="827" width="100" height="60" as="geometry" />
        </mxCell>
        <mxCell id="jeHXLBTCa4225aKpq0WZ-132" value="&lt;font face=&quot;Comic Sans MS&quot; style=&quot;font-size: 14px;&quot;&gt;TCP首部&lt;/font&gt;" style="rounded=1;whiteSpace=wrap;html=1;fillColor=#fff2cc;strokeColor=#d6b656;fontStyle=1;gradientColor=#ffd966;" vertex="1" parent="jeHXLBTCa4225aKpq0WZ-4">
          <mxGeometry x="1407" y="827" width="100" height="60" as="geometry" />
        </mxCell>
        <mxCell id="jeHXLBTCa4225aKpq0WZ-133" value="&lt;font face=&quot;Comic Sans MS&quot; style=&quot;font-size: 14px;&quot;&gt;用户数据&lt;/font&gt;" style="rounded=1;whiteSpace=wrap;html=1;fillColor=#b0e3e6;strokeColor=#0e8088;fontStyle=1" vertex="1" parent="jeHXLBTCa4225aKpq0WZ-4">
          <mxGeometry x="1507" y="926" width="100" height="60" as="geometry" />
        </mxCell>
        <mxCell id="jeHXLBTCa4225aKpq0WZ-134" value="&lt;font face=&quot;Comic Sans MS&quot; style=&quot;font-size: 14px;&quot;&gt;TCP首部&lt;/font&gt;" style="rounded=1;whiteSpace=wrap;html=1;fillColor=#fff2cc;strokeColor=#d6b656;fontStyle=1;gradientColor=#ffd966;" vertex="1" parent="jeHXLBTCa4225aKpq0WZ-4">
          <mxGeometry x="1407" y="926" width="100" height="60" as="geometry" />
        </mxCell>
        <mxCell id="jeHXLBTCa4225aKpq0WZ-135" value="&lt;font face=&quot;Comic Sans MS&quot; style=&quot;font-size: 14px;&quot;&gt;IP首部&lt;/font&gt;" style="rounded=1;whiteSpace=wrap;html=1;fillColor=#dae8fc;strokeColor=#6c8ebf;fontStyle=1;gradientColor=#7ea6e0;" vertex="1" parent="jeHXLBTCa4225aKpq0WZ-4">
          <mxGeometry x="1307" y="926" width="100" height="60" as="geometry" />
        </mxCell>
        <mxCell id="jeHXLBTCa4225aKpq0WZ-136" value="&lt;font face=&quot;Comic Sans MS&quot; style=&quot;font-size: 14px;&quot;&gt;用户数据&lt;/font&gt;" style="rounded=1;whiteSpace=wrap;html=1;fillColor=#b0e3e6;strokeColor=#0e8088;fontStyle=1" vertex="1" parent="jeHXLBTCa4225aKpq0WZ-4">
          <mxGeometry x="1507" y="1026" width="100" height="60" as="geometry" />
        </mxCell>
        <mxCell id="jeHXLBTCa4225aKpq0WZ-137" value="&lt;font face=&quot;Comic Sans MS&quot; style=&quot;font-size: 14px;&quot;&gt;TCP首部&lt;/font&gt;" style="rounded=1;whiteSpace=wrap;html=1;fillColor=#fff2cc;strokeColor=#d6b656;fontStyle=1;gradientColor=#ffd966;" vertex="1" parent="jeHXLBTCa4225aKpq0WZ-4">
          <mxGeometry x="1407" y="1026" width="100" height="60" as="geometry" />
        </mxCell>
        <mxCell id="jeHXLBTCa4225aKpq0WZ-138" value="&lt;font face=&quot;Comic Sans MS&quot; style=&quot;font-size: 14px;&quot;&gt;IP首部&lt;/font&gt;" style="rounded=1;whiteSpace=wrap;html=1;fillColor=#dae8fc;strokeColor=#6c8ebf;fontStyle=1;gradientColor=#7ea6e0;" vertex="1" parent="jeHXLBTCa4225aKpq0WZ-4">
          <mxGeometry x="1307" y="1026" width="100" height="60" as="geometry" />
        </mxCell>
        <mxCell id="jeHXLBTCa4225aKpq0WZ-139" value="&lt;font face=&quot;Comic Sans MS&quot; style=&quot;font-size: 14px;&quot;&gt;以太网首部&lt;/font&gt;" style="rounded=1;whiteSpace=wrap;html=1;fillColor=#f8cecc;strokeColor=#b85450;fontStyle=1;gradientColor=#ea6b66;" vertex="1" parent="jeHXLBTCa4225aKpq0WZ-4">
          <mxGeometry x="1251" y="1026" width="56" height="60" as="geometry" />
        </mxCell>
        <mxCell id="jeHXLBTCa4225aKpq0WZ-149" value="" style="shape=flexArrow;endArrow=block;html=1;rounded=0;endFill=0;" edge="1" parent="jeHXLBTCa4225aKpq0WZ-4">
          <mxGeometry width="50" height="50" relative="1" as="geometry">
            <mxPoint x="122" y="735" as="sourcePoint" />
            <mxPoint x="122" y="1087" as="targetPoint" />
          </mxGeometry>
        </mxCell>
        <mxCell id="jeHXLBTCa4225aKpq0WZ-150" value="&lt;font style=&quot;font-size: 14px;&quot; face=&quot;Comic Sans MS&quot;&gt;封装报头&lt;/font&gt;" style="text;strokeColor=none;align=center;fillColor=none;html=1;verticalAlign=middle;whiteSpace=wrap;rounded=0;fontStyle=1" vertex="1" parent="jeHXLBTCa4225aKpq0WZ-4">
          <mxGeometry x="136" y="728" width="60" height="30" as="geometry" />
        </mxCell>
        <mxCell id="jeHXLBTCa4225aKpq0WZ-151" value="" style="shape=flexArrow;endArrow=classic;html=1;rounded=0;" edge="1" parent="jeHXLBTCa4225aKpq0WZ-4">
          <mxGeometry width="50" height="50" relative="1" as="geometry">
            <mxPoint x="1649" y="1064" as="sourcePoint" />
            <mxPoint x="1649" y="726" as="targetPoint" />
          </mxGeometry>
        </mxCell>
        <mxCell id="jeHXLBTCa4225aKpq0WZ-152" value="解包+分用" style="text;strokeColor=none;align=center;fillColor=none;html=1;verticalAlign=middle;whiteSpace=wrap;rounded=0;fontSize=14;fontFamily=Comic Sans MS;fontStyle=1" vertex="1" parent="jeHXLBTCa4225aKpq0WZ-4">
          <mxGeometry x="1617" y="1071" width="70" height="30" as="geometry" />
        </mxCell>
        <mxCell id="jeHXLBTCa4225aKpq0WZ-153" value="&lt;font face=&quot;Comic Sans MS&quot; style=&quot;font-size: 14px;&quot;&gt;数据载荷&lt;/font&gt;" style="rounded=1;whiteSpace=wrap;html=1;fillColor=#fff2cc;strokeColor=#d6b656;fontStyle=1;gradientColor=#ffd966;" vertex="1" parent="jeHXLBTCa4225aKpq0WZ-4">
          <mxGeometry x="401" y="1166" width="100" height="60" as="geometry" />
        </mxCell>
        <mxCell id="jeHXLBTCa4225aKpq0WZ-154" value="&lt;font face=&quot;Comic Sans MS&quot;&gt;&lt;span style=&quot;font-size: 14px;&quot;&gt;报头&lt;/span&gt;&lt;/font&gt;" style="rounded=1;whiteSpace=wrap;html=1;fillColor=#dae8fc;strokeColor=#6c8ebf;fontStyle=1;gradientColor=#7ea6e0;" vertex="1" parent="jeHXLBTCa4225aKpq0WZ-4">
          <mxGeometry x="341" y="1166" width="60" height="60" as="geometry" />
        </mxCell>
      </root>
    </mxGraphModel>
  </diagram>
</mxfile>
